<?xml version="1.0" standalone="no"?>
<!DOCTYPE svg PUBLIC "-//W3C//DTD SVG 20010904//EN"
 "http://www.w3.org/TR/2001/REC-SVG-20010904/DTD/svg10.dtd">
<svg version="1.0" xmlns="http://www.w3.org/2000/svg"
 width="600.000000pt" height="600.000000pt" viewBox="0 0 600.000000 600.000000"
 preserveAspectRatio="xMidYMid meet">
<metadata>
Created by potrace 1.11, written by Peter Selinger 2001-2013
</metadata>
<g transform="translate(0.000000,600.000000) scale(0.100000,-0.100000)"
fill="#000000" stroke="none">
<path d="M4555 5989 c-16 -6 -37 -12 -45 -14 -20 -5 -1011 -309 -1245 -382
-208 -65 -301 -74 -410 -40 -33 10 -67 20 -75 22 -18 4 -164 48 -350 105 -74
23 -142 43 -150 45 -8 2 -85 24 -170 50 -85 26 -213 64 -285 85 -71 21 -197
59 -280 84 -82 25 -153 42 -156 38 -3 -4 -25 -68 -47 -142 -22 -74 -52 -173
-66 -220 l-26 -85 -392 0 -393 0 -1 -390 c-1 -214 -2 -395 -3 -401 0 -7 -13
-15 -28 -18 -16 -4 -77 -22 -138 -41 -60 -18 -150 -46 -200 -61 -50 -15 -91
-28 -92 -29 -2 -1 42 -150 98 -331 86 -282 338 -1109 357 -1169 11 -37 9 -180
-4 -220 -7 -22 -29 -96 -49 -165 -50 -169 -143 -478 -195 -647 -117 -385 -198
-669 -192 -674 4 -4 57 -21 117 -39 61 -18 128 -38 150 -45 22 -7 72 -22 110
-33 l70 -21 0 -390 c0 -254 3 -392 10 -394 5 -2 182 -3 393 -3 252 1 386 -2
392 -9 5 -6 39 -109 76 -230 36 -121 68 -221 69 -223 1 -1 121 34 266 79 1240
380 1259 386 1344 384 44 -1 90 -5 102 -9 12 -4 30 -9 40 -11 10 -3 77 -22
148 -44 72 -22 227 -69 345 -104 118 -36 253 -77 300 -90 47 -14 153 -46 235
-70 83 -25 211 -64 285 -86 74 -22 138 -37 141 -33 8 8 129 412 129 430 0 16
-32 14 410 16 l385 1 1 385 c1 212 2 392 3 401 1 11 17 21 49 29 26 6 81 22
122 35 41 13 122 38 180 56 58 18 106 33 108 34 1 1 -9 38 -22 81 -14 43 -41
131 -60 194 -19 63 -62 205 -96 315 -34 110 -77 252 -96 315 -19 63 -41 135
-49 160 -8 25 -31 99 -51 165 -20 66 -48 156 -62 200 -26 82 -37 221 -21 275
22 76 162 544 179 595 10 33 35 114 54 180 19 66 65 219 102 340 59 198 114
386 114 392 0 2 -7 3 -15 3 -8 0 -34 6 -57 14 -24 7 -81 25 -128 39 -47 14
-123 37 -170 51 l-85 26 0 390 c0 342 -2 390 -15 391 -8 1 -188 2 -399 3
l-383 1 -72 233 c-39 127 -73 232 -76 231 -3 0 -18 -5 -35 -10z"/>
</g>
</svg>
